<svg xmlns="http://www.w3.org/2000/svg" viewBox="0 0 96 96" role="img" aria-label="[DAN] dot-matrix mark"><rect width="96" height="96" rx="18" fill="#1e1e22"/><circle cx="48.00" cy="25.71" r="2.67" fill="#f25b4f"/><circle cx="40.57" cy="33.14" r="2.67" fill="#f25b4f"/><circle cx="48.00" cy="33.14" r="2.67" fill="#f25b4f"/><circle cx="55.43" cy="33.14" r="2.67" fill="#f25b4f"/><circle cx="33.14" cy="40.57" r="2.67" fill="#f25b4f"/><circle cx="40.57" cy="40.57" r="2.67" fill="#f25b4f"/><circle cx="48.00" cy="40.57" r="2.67" fill="#f25b4f"/><circle cx="55.43" cy="40.57" r="2.67" fill="#f25b4f"/><circle cx="62.86" cy="40.57" r="2.67" fill="#f25b4f"/><circle cx="25.71" cy="48.00" r="2.67" fill="#f25b4f"/><circle cx="33.14" cy="48.00" r="2.67" fill="#f25b4f"/><circle cx="40.57" cy="48.00" r="2.67" fill="#f25b4f"/><circle cx="48.00" cy="48.00" r="2.67" fill="#f25b4f"/><circle cx="55.43" cy="48.00" r="2.67" fill="#f25b4f"/><circle cx="62.86" cy="48.00" r="2.67" fill="#f25b4f"/><circle cx="70.29" cy="48.00" r="2.67" fill="#f25b4f"/><circle cx="33.14" cy="55.43" r="2.67" fill="#f25b4f"/><circle cx="40.57" cy="55.43" r="2.67" fill="#f25b4f"/><circle cx="48.00" cy="55.43" r="2.67" fill="#f25b4f"/><circle cx="55.43" cy="55.43" r="2.67" fill="#f25b4f"/><circle cx="62.86" cy="55.43" r="2.67" fill="#f25b4f"/><circle cx="40.57" cy="62.86" r="2.67" fill="#f25b4f"/><circle cx="48.00" cy="62.86" r="2.67" fill="#f25b4f"/><circle cx="55.43" cy="62.86" r="2.67" fill="#f25b4f"/><circle cx="48.00" cy="70.29" r="2.67" fill="#f25b4f"/></svg>
